<svg width="100" height="100" viewBox="0 0 100 100" fill="none" xmlns="http://www.w3.org/2000/svg">
<path d="M97.2049 6.21113H95.8592V1.55273C95.8592 0.695117 95.1641 0 94.3064 0H82.2982C81.4404 0 80.7455 0.695312 80.7455 1.55273V6.21113H78.9857C78.1279 6.21113 77.433 6.90645 77.433 7.76387V12.7328C77.433 13.5904 78.1281 14.2855 78.9857 14.2855H80.7455V18.9439C80.7455 19.8016 81.4406 20.4967 82.2982 20.4967C83.1561 20.4967 83.851 19.8014 83.851 18.9439V14.2857H92.7537V36.7494C92.7537 46.1678 85.0912 53.8301 75.673 53.8301H63.9754V44.5133H76.0871C80.3682 44.5133 83.8512 41.0305 83.8512 36.7492V27.2254C83.8512 26.3678 83.1561 25.6727 82.2984 25.6727C81.4406 25.6727 80.7457 26.368 80.7457 27.2254V36.7492C80.7457 39.318 78.6559 41.4076 76.0873 41.4076H63.9756V39.2338C63.9756 38.3762 63.2805 37.6811 62.4229 37.6811H57.4539C56.5961 37.6811 55.9012 38.3764 55.9012 39.2338V41.4076H52.3809V30.4346H54.0471C54.725 32.8213 56.9227 34.5754 59.5236 34.5754C62.6629 34.5754 65.2172 32.0213 65.2172 28.8818C65.2172 25.7424 62.6629 23.1883 59.5236 23.1883C56.9227 23.1883 54.7248 24.9424 54.0471 27.3291H47.609C46.9311 24.9424 44.7334 23.1883 42.1324 23.1883C38.9932 23.1883 36.4389 25.7424 36.4389 28.8818C36.4389 32.0213 38.9932 34.5754 42.1324 34.5754C44.7334 34.5754 46.9312 32.8213 47.609 30.4346H49.2752V41.4076H45.7555V39.2338C45.7555 38.3762 45.0603 37.6811 44.2027 37.6811H39.2338C38.376 37.6811 37.6811 38.3764 37.6811 39.2338V41.4076H24.741C13.6102 41.4076 4.55469 50.4631 4.55469 61.5939V68.6332C4.55469 69.4908 5.2498 70.1859 6.10742 70.1859C6.96523 70.1859 7.66016 69.4906 7.66016 68.6332V61.5939C7.66016 52.1756 15.3227 44.5133 24.7408 44.5133H37.6809V53.8301H24.3268C20.0455 53.8301 16.5627 57.3129 16.5627 61.5941V85.3002H7.66055V76.915C7.66055 76.0574 6.96543 75.3623 6.10781 75.3623C5.25 75.3623 4.55508 76.0576 4.55508 76.915V85.3002H2.79531C1.9375 85.3002 1.24258 85.9955 1.24258 86.8529V91.8219C1.24258 92.6795 1.93769 93.3746 2.79531 93.3746H4.55508V98.033C4.55508 98.8906 5.25019 99.5857 6.10781 99.5857H18.116C18.9738 99.5857 19.6687 98.8904 19.6687 98.033V93.3746H21.0145C21.8723 93.3746 22.5672 92.6793 22.5672 91.8219V86.8529C22.5672 85.9953 21.8721 85.3002 21.0145 85.3002H19.6687V61.5941C19.6687 59.0254 21.7586 56.9357 24.3271 56.9357H37.6812V59.1096C37.6812 59.9672 38.3764 60.6623 39.234 60.6623H44.2029C45.0607 60.6623 45.7557 59.967 45.7557 59.1096V56.9357H55.9006V59.1096C55.9006 59.9672 56.5957 60.6623 57.4533 60.6623H62.4223C63.2801 60.6623 63.975 59.967 63.975 59.1096V56.9357H75.6727C86.8035 56.9357 95.859 47.8803 95.859 36.7494V14.2857H97.2047C98.0625 14.2857 98.7574 13.5904 98.7574 12.733V7.76406C98.7578 6.90645 98.0627 6.21113 97.2049 6.21113ZM59.5238 26.2939C60.951 26.2939 62.1119 27.4549 62.1119 28.882C62.1119 30.3092 60.951 31.4699 59.5238 31.4699C58.0967 31.4699 56.9359 30.309 56.9359 28.882C56.9359 27.4551 58.0967 26.2939 59.5238 26.2939ZM42.1324 31.4699C40.7053 31.4699 39.5443 30.309 39.5443 28.882C39.5443 27.4551 40.7053 26.2939 42.1324 26.2939C43.5596 26.2939 44.7203 27.4549 44.7203 28.882C44.7203 30.3092 43.5596 31.4699 42.1324 31.4699ZM16.5631 96.4803H7.66055V93.3746H16.5633L16.5631 96.4803ZM19.4617 90.2691H4.34785V88.4059H19.4617V90.2691ZM42.6502 57.557H40.7869V40.7869H42.6502V57.557ZM55.9006 53.8303H45.7557V44.5135H55.9006V53.8303ZM60.8695 57.557H59.0062V40.7869H60.8695V57.557ZM83.851 3.10566H92.7537V6.21133H83.851V3.10566ZM95.6522 11.1801H80.5383V9.3168H95.6522V11.1801Z" fill="#FEED01"/>
<path d="M58.9133 72.8172C58.4791 72.0774 57.5277 71.8295 56.7883 72.2635C56.0484 72.6975 55.8008 73.6489 56.2346 74.3885C60.6277 81.8768 61.2836 85.1528 61.2836 86.4389C61.2836 92.2041 56.5934 96.8944 50.8281 96.8944C45.0629 96.8944 40.3727 92.2041 40.3727 86.4389C40.3727 81.9733 47.0521 71.3963 50.8246 65.9452C51.376 66.7438 52.073 67.7711 52.8426 68.9442C53.3129 69.6614 54.2758 69.8614 54.9926 69.3911C55.7098 68.9209 55.9098 67.9581 55.4395 67.2409C53.5631 64.3799 52.1443 62.4208 52.085 62.3387C51.4752 61.4981 50.1809 61.4981 49.5709 62.3387C48.3117 64.0752 37.267 79.5034 37.267 86.4389C37.267 93.9166 43.3504 100 50.8281 100C58.3059 100 64.3893 93.9166 64.3893 86.4389C64.3893 83.5538 62.598 79.0979 58.9133 72.8172Z" fill="#FEED01"/>
<path d="M54.6275 75.3317C54.1934 74.5918 53.2422 74.3442 52.5025 74.778C51.7627 75.212 51.515 76.1633 51.9488 76.903C56.1604 84.0821 56.3105 86.3641 56.3146 86.4387C56.3146 89.4639 53.8533 91.9252 50.8281 91.9252C49.9703 91.9252 49.2754 92.6206 49.2754 93.478C49.2754 94.3354 49.9705 95.0307 50.8281 95.0307C55.5658 95.0307 59.4203 91.1762 59.4203 86.4385C59.4203 85.7497 59.0748 82.9124 54.6275 75.3317Z" fill="#FEED01"/>
</svg>
